<svg width="126" height="126" viewBox="0 0 126 126" fill="#8a2be2" xmlns="http://www.w3.org/2000/svg">
<path fill-rule="evenodd" clip-rule="evenodd" d="M63 126C97.7939 126 126 97.7939 126 63C126 28.2061 97.7939 0 63 0C28.2061 0 0 28.2061 0 63C0 97.7939 28.2061 126 63 126ZM95.8 95.75C95.8 96.95 95.35 98 94.45 98.9L85.15 108.2C84.25 109.1 83.2 109.55 81.85 109.55H44.8C43.45 109.55 42.4 109.1 41.65 108.2L32.35 98.9C31.45 98.15 31 97.1 31 95.75V91.1C31 89.75 31.45 88.7 32.35 87.8L86.5 33.5V32.9L79.9 26.3H46.75L40.3 32.9V72.5C40.3 75.05 38.2 77.15 35.65 77.15C33.1 77.15 31 75.05 31 72.5V30.95C31 29.6 31.45 28.55 32.35 27.65L41.65 18.35C42.4 17.45 43.45 17 44.8 17H81.85C83.2 17 84.25 17.45 85.15 18.35L94.45 27.65C95.35 28.7 95.8 29.9 95.8 30.95V35.45C95.8 36.8 95.35 37.85 94.45 38.6L40.3 92.9V93.8L46.75 100.25H79.9L86.5 93.8V54.05C86.5 51.5 88.6 49.4 91.15 49.4C93.7 49.4 95.8 51.5 95.8 54.05V95.75Z" fill="#8a2be2"/>
</svg>
