<svg width="78" height="99" viewBox="0 0 78 99" fill="none" xmlns="http://www.w3.org/2000/svg">
<g filter="url(#filter0_i_11_2)">
<path fill-rule="evenodd" clip-rule="evenodd" d="M43.8527 12.6656C42.3122 14.249 42.347 16.7814 43.9304 18.3219C45.5138 19.8624 48.0462 19.8276 49.5867 18.2442L55.5 12.1661V48.0407C55.5 50.5907 57.6 52.6907 60.15 52.6907C62.7 52.6907 64.8 50.5907 64.8 48.0407V12.4778L70.5625 18.2748C72.1199 19.8416 74.6525 19.8492 76.2193 18.2918C77.7861 16.7343 77.7936 14.2017 76.2362 12.6349L66.3374 2.67669C62.7917 -0.890304 57.0108 -0.859234 53.5036 2.74568L43.8527 12.6656ZM60.15 98.8907C57.6 98.8907 55.5 96.7907 55.5 94.2407V68.4407L9.3 22.2407V94.2407C9.3 96.7907 7.2 98.8907 4.65 98.8907C2.1 98.8907 0 96.7907 0 94.2407V10.9907C0 9.19071 1.05 7.39071 2.85 6.79071C4.8 6.04071 6.6 6.34071 7.95 7.69071L63.45 63.1907C64.35 64.2407 64.8 65.4407 64.8 66.4907V94.2407C64.8 96.7907 62.7 98.8907 60.15 98.8907Z" fill="#8a2be2"/>
</g>
<defs>
<filter id="filter0_i_11_2" x="0" y="0.0215898" width="78.3993" height="100.869" filterUnits="userSpaceOnUse" color-interpolation-filters="sRGB">
<feFlood flood-opacity="0" result="BackgroundImageFix"/>
<feBlend mode="normal" in="SourceGraphic" in2="BackgroundImageFix" result="shape"/>
<feColorMatrix in="SourceAlpha" type="matrix" values="0 0 0 0 0 0 0 0 0 0 0 0 0 0 0 0 0 0 127 0" result="hardAlpha"/>
<feOffset dx="1" dy="2"/>
<feGaussianBlur stdDeviation="1"/>
<feComposite in2="hardAlpha" operator="arithmetic" k2="-1" k3="1"/>
<feColorMatrix type="matrix" values="0 0 0 0 0 0 0 0 0 0 0 0 0 0 0 0 0 0 1 0"/>
<feBlend mode="normal" in2="shape" result="effect1_innerShadow_11_2"/>
</filter>
</defs>
</svg>
