<svg width="357" height="145" viewBox="0 0 357 145" fill="none" xmlns="http://www.w3.org/2000/svg">
<path fill-rule="evenodd" clip-rule="evenodd" d="M69.2021 41.3135C67.6233 39.7683 67.5961 37.2358 69.1413 35.657L78.8818 25.7048C82.385 22.1255 88.1363 22.0946 91.6777 25.636L101.668 35.6264C103.23 37.1885 103.23 39.7212 101.668 41.2833C100.106 42.8454 97.5734 42.8454 96.0113 41.2833L89.8 35.072V71.0407C89.8 72.3407 89.35 73.4407 88.45 74.3407C87.55 75.2407 86.45 75.6907 85.15 75.6907C83.85 75.6907 82.75 75.2407 81.85 74.3407C80.95 73.4407 80.5 72.3407 80.5 71.0407V35.4888L74.8587 41.2527C73.3135 42.8315 70.781 42.8588 69.2021 41.3135ZM337.59 110.99C339.193 112.511 339.259 115.042 337.738 116.645L328.15 126.744C324.702 130.377 318.952 130.496 315.357 127.009L305.215 117.172C303.629 115.634 303.591 113.101 305.129 111.516C306.667 109.93 309.199 109.891 310.785 111.429L317.554 117.994C317.518 117.751 317.5 117.5 317.5 117.241V105.241L263.35 51.0907C262.45 50.3907 262 49.3407 262 47.9407V33.9907C262 32.6907 262.45 31.5907 263.35 30.6907C264.25 29.7907 265.35 29.3407 266.65 29.3407C267.95 29.3407 269.05 29.7907 269.95 30.6907C270.85 31.5907 271.3 32.6907 271.3 33.9907V45.9907L325.45 100.141C326.35 101.241 326.8 102.341 326.8 103.441V116.547L331.936 111.137C333.456 109.535 335.988 109.469 337.59 110.99ZM34.3 45.2407L80.5 91.4407V117.241C80.5 118.541 80.95 119.641 81.85 120.541C82.75 121.441 83.85 121.891 85.15 121.891C86.45 121.891 87.55 121.441 88.45 120.541C89.35 119.641 89.8 118.541 89.8 117.241V89.4907C89.8 88.3907 89.35 87.2907 88.45 86.1907L32.95 30.6907C31.55 29.2907 29.85 28.9907 27.85 29.7907C26.95 30.0907 26.25 30.6407 25.75 31.4407C25.25 32.2407 25 33.0907 25 33.9907V117.241C25 118.541 25.45 119.641 26.35 120.541C27.25 121.441 28.35 121.891 29.65 121.891C30.95 121.891 32.05 121.441 32.95 120.541C33.85 119.641 34.3 118.541 34.3 117.241V45.2407ZM194.35 121.891C195.65 121.891 196.75 121.441 197.65 120.541L206.95 111.241C207.85 110.341 208.3 109.291 208.3 108.091V66.3907C208.3 65.0907 207.85 63.9907 206.95 63.0907C206.05 62.1907 204.95 61.7407 203.65 61.7407C202.35 61.7407 201.25 62.1907 200.35 63.0907C199.45 63.9907 199 65.0907 199 66.3907V106.141L192.4 112.591H159.25L152.8 106.141V105.241L206.95 50.9407C207.85 50.2407 208.3 49.1907 208.3 47.7907V43.2907C208.3 42.1907 207.85 41.0907 206.95 39.9907L197.65 30.6907C196.75 29.7907 195.65 29.3407 194.35 29.3407H157.3C155.9 29.3407 154.85 29.7907 154.15 30.6907L144.85 39.9907C143.95 40.8907 143.5 41.9907 143.5 43.2907V84.8407C143.5 86.1407 143.95 87.2407 144.85 88.1407C145.75 89.0407 146.85 89.4907 148.15 89.4907C149.45 89.4907 150.55 89.0407 151.45 88.1407C152.35 87.2407 152.8 86.1407 152.8 84.8407V45.2407L159.25 38.6407H192.4L199 45.2407V45.8407L144.85 100.141C143.95 101.041 143.5 102.141 143.5 103.441V108.091C143.5 109.491 143.95 110.541 144.85 111.241L154.15 120.541C154.85 121.441 155.9 121.891 157.3 121.891H194.35ZM263.35 100.141C262.45 101.041 262 102.141 262 103.441V117.241C262 118.541 262.45 119.641 263.35 120.541C264.25 121.441 265.35 121.891 266.65 121.891C267.95 121.891 269.05 121.441 269.95 120.541C270.85 119.641 271.3 118.541 271.3 117.241V105.241L288.4 88.1407C289.3 87.2407 289.75 86.1907 289.75 84.9907C289.75 83.6907 289.3 82.5407 288.4 81.5407C287.5 80.6407 286.4 80.1907 285.1 80.1907C283.8 80.1907 282.7 80.6407 281.8 81.5407L263.35 100.141ZM303.7 71.0407C304.9 71.0407 305.95 70.5907 306.85 69.6907L325.45 51.0907C326.35 50.1907 326.8 49.1407 326.8 47.9407V33.9907C326.8 32.6907 326.35 31.5907 325.45 30.6907C324.55 29.7907 323.45 29.3407 322.15 29.3407C320.85 29.3407 319.75 29.7907 318.85 30.6907C317.95 31.5907 317.5 32.6907 317.5 33.9907V45.9907L300.4 63.0907C299.5 63.9907 299.05 65.0907 299.05 66.3907C299.05 67.6907 299.5 68.7907 300.4 69.6907C301.3 70.5907 302.4 71.0407 303.7 71.0407Z" fill="white"/>
<path fill-rule="evenodd" clip-rule="evenodd" d="M64.1413 35.657C62.5961 37.2358 62.6233 39.7683 64.2021 41.3135C65.781 42.8588 68.3135 42.8315 69.8587 41.2527L75.5 35.4888V71.0407C75.5 72.3407 75.95 73.4407 76.85 74.3407C77.75 75.2407 78.85 75.6907 80.15 75.6907C81.45 75.6907 82.55 75.2407 83.45 74.3407C84.35 73.4407 84.8 72.3407 84.8 71.0407V35.072L91.0113 41.2833C92.5734 42.8454 95.1061 42.8454 96.6682 41.2833C98.2303 39.7212 98.2303 37.1885 96.6682 35.6265L86.6777 25.636C83.1363 22.0946 77.385 22.1255 73.8818 25.7048L64.1413 35.657ZM75.5 91.4407L29.3 45.2407V117.241C29.3 118.541 28.85 119.641 27.95 120.541C27.05 121.441 25.95 121.891 24.65 121.891C23.35 121.891 22.25 121.441 21.35 120.541C20.45 119.641 20 118.541 20 117.241V33.9907C20 33.0907 20.25 32.2407 20.75 31.4407C21.25 30.6407 21.95 30.0907 22.85 29.7907C24.85 28.9907 26.55 29.2907 27.95 30.6907L83.45 86.1907C84.35 87.2907 84.8 88.3907 84.8 89.4907V117.241C84.8 118.541 84.35 119.641 83.45 120.541C82.55 121.441 81.45 121.891 80.15 121.891C78.85 121.891 77.75 121.441 76.85 120.541C75.95 119.641 75.5 118.541 75.5 117.241V91.4407ZM192.65 120.541C191.75 121.441 190.65 121.891 189.35 121.891H152.3C150.9 121.891 149.85 121.441 149.15 120.541L139.85 111.241C138.95 110.541 138.5 109.491 138.5 108.091V103.441C138.5 102.141 138.95 101.041 139.85 100.141L194 45.8407V45.2407L187.4 38.6407H154.25L147.8 45.2407V84.8407C147.8 86.1407 147.35 87.2407 146.45 88.1407C145.55 89.0407 144.45 89.4907 143.15 89.4907C141.85 89.4907 140.75 89.0407 139.85 88.1407C138.95 87.2407 138.5 86.1407 138.5 84.8407V43.2907C138.5 41.9907 138.95 40.8907 139.85 39.9907L149.15 30.6907C149.85 29.7907 150.9 29.3407 152.3 29.3407H189.35C190.65 29.3407 191.75 29.7907 192.65 30.6907L201.95 39.9907C202.85 41.0907 203.3 42.1907 203.3 43.2907V47.7907C203.3 49.1907 202.85 50.2407 201.95 50.9407L147.8 105.241V106.141L154.25 112.591H187.4L194 106.141V66.3907C194 65.0907 194.45 63.9907 195.35 63.0907C196.25 62.1907 197.35 61.7407 198.65 61.7407C199.95 61.7407 201.05 62.1907 201.95 63.0907C202.85 63.9907 203.3 65.0907 203.3 66.3907V108.091C203.3 109.291 202.85 110.341 201.95 111.241L192.65 120.541ZM257 103.441C257 102.141 257.45 101.041 258.35 100.141L276.8 81.5407C277.7 80.6407 278.8 80.1907 280.1 80.1907C281.4 80.1907 282.5 80.6407 283.4 81.5407C284.3 82.5407 284.75 83.6907 284.75 84.9907C284.75 86.1907 284.3 87.2407 283.4 88.1407L266.3 105.241V117.241C266.3 118.541 265.85 119.641 264.95 120.541C264.05 121.441 262.95 121.891 261.65 121.891C260.35 121.891 259.25 121.441 258.35 120.541C257.45 119.641 257 118.541 257 117.241V103.441ZM312.5 105.241L258.35 51.0907C257.45 50.3907 257 49.3407 257 47.9407V33.9907C257 32.6907 257.45 31.5907 258.35 30.6907C259.25 29.7907 260.35 29.3407 261.65 29.3407C262.95 29.3407 264.05 29.7907 264.95 30.6907C265.85 31.5907 266.3 32.6907 266.3 33.9907V45.9907L320.45 100.141C321.35 101.241 321.8 102.341 321.8 103.441V116.547L326.936 111.137C328.456 109.535 330.988 109.469 332.59 110.99C334.193 112.511 334.259 115.042 332.738 116.645L323.15 126.744C319.702 130.377 313.952 130.496 310.357 127.009L300.215 117.172C298.629 115.634 298.591 113.101 300.129 111.516C301.667 109.93 304.199 109.891 305.785 111.429L312.554 117.994C312.518 117.751 312.5 117.5 312.5 117.241V105.241ZM301.85 69.6907C300.95 70.5907 299.9 71.0407 298.7 71.0407C297.4 71.0407 296.3 70.5907 295.4 69.6907C294.5 68.7907 294.05 67.6907 294.05 66.3907C294.05 65.0907 294.5 63.9907 295.4 63.0907L312.5 45.9907V33.9907C312.5 32.6907 312.95 31.5907 313.85 30.6907C314.75 29.7907 315.85 29.3407 317.15 29.3407C318.45 29.3407 319.55 29.7907 320.45 30.6907C321.35 31.5907 321.8 32.6907 321.8 33.9907V47.9407C321.8 49.1407 321.35 50.1907 320.45 51.0907L301.85 69.6907Z" fill="#2F2F2F"/>
</svg>
