<svg width="115" height="134" viewBox="0 0 115 134" fill="none" xmlns="http://www.w3.org/2000/svg">
<path fill-rule="evenodd" clip-rule="evenodd" d="M57.5 134C89.2564 134 115 104.003 115 67C115 29.9969 89.2564 0 57.5 0C25.7436 0 0 29.9969 0 67C0 104.003 25.7436 134 57.5 134ZM24 106.9C24 109.45 26.1 111.55 28.65 111.55C31.2 111.55 33.3 109.45 33.3 106.9V94.9L50.4 77.8C52.2 76 52.2 73.15 50.4 71.2C48.6 69.4 45.6 69.4 43.8 71.2L25.35 89.8C24.45 90.7 24 91.75 24 93.1V106.9ZM79.5 106.9C79.5 106.974 79.5018 107.048 79.5053 107.122L73.2849 101.089C71.6991 99.5506 69.1668 99.5892 67.6287 101.175C66.0907 102.761 66.1293 105.293 67.7151 106.831L77.8569 116.668C81.452 120.155 87.2022 120.036 90.6503 116.404L100.238 106.304C101.759 104.702 101.693 102.17 100.09 100.649C98.4883 99.1281 95.9565 99.194 94.4355 100.796L88.8 106.733V93.1C88.8 92.05 88.35 90.85 87.45 89.8L33.3 35.65V23.65C33.3 21.1 31.2 19 28.65 19C26.1 19 24 21.1 24 23.65V37.6C24 38.95 24.45 40 25.35 40.75L79.5 94.9V106.9ZM87.45 40.75C88.35 39.85 88.8 38.8 88.8 37.6V23.65C88.8 21.1 86.7 19 84.15 19C81.6 19 79.5 21.1 79.5 23.65V35.65L62.4 52.75C60.6 54.55 60.6 57.55 62.4 59.35C63.3 60.25 64.35 60.7 65.7 60.7C66.9 60.7 67.95 60.25 68.85 59.35L87.45 40.75Z" fill="black"/>
</svg>
